<svg width="700" height="412" viewBox="0 0 700 412" fill="none" xmlns="http://www.w3.org/2000/svg">
<rect width="700" height="412" fill="#E5E5E5"/>
<g clip-path="url(#clip0)">
<rect width="1226" height="624" transform="translate(-235 -106)" fill="white"/>
<g clip-path="url(#clip1)">
<rect width="795.216" height="696.108" transform="translate(-0.483215 -141.705)" fill="white"/>
<rect x="3.8147e-06" width="700" height="412.06" fill="url(#paint0_linear)"/>
<rect x="3.8147e-06" width="700" height="412.06" fill="url(#paint1_linear)"/>
<rect x="3.8147e-06" width="700" height="412.06" fill="url(#paint2_linear)"/>
<path d="M320.608 0.0202011L421.396 245.478L55.2634 0.00343777L320.608 0.0202011Z" fill="url(#paint3_linear)"/>
<path d="M473.721 413.418L372.076 168.313L739.064 412.508L473.721 413.418Z" fill="url(#paint4_linear)"/>
</g>
</g>
<defs>
<linearGradient id="paint0_linear" x1="350" y1="0" x2="350" y2="412.06" gradientUnits="userSpaceOnUse">
<stop stop-color="#C4C4C4"/>
<stop offset="1" stop-color="#A300EF"/>
</linearGradient>
<linearGradient id="paint1_linear" x1="350" y1="0" x2="350" y2="412.06" gradientUnits="userSpaceOnUse">
<stop stop-color="#3F69FF"/>
<stop offset="1" stop-color="white" stop-opacity="0"/>
</linearGradient>
<linearGradient id="paint2_linear" x1="2.55346e-06" y1="343.5" x2="700" y2="76.5" gradientUnits="userSpaceOnUse">
<stop stop-color="#F96A6A"/>
<stop offset="1" stop-color="white" stop-opacity="0"/>
</linearGradient>
<linearGradient id="paint3_linear" x1="320.608" y1="0.020214" x2="236.5" y2="117.5" gradientUnits="userSpaceOnUse">
<stop stop-color="white" stop-opacity="0.75"/>
<stop offset="1" stop-color="white" stop-opacity="0"/>
</linearGradient>
<linearGradient id="paint4_linear" x1="473.721" y1="413.418" x2="554" y2="295" gradientUnits="userSpaceOnUse">
<stop stop-color="white" stop-opacity="0.75"/>
<stop offset="1" stop-color="white" stop-opacity="0"/>
</linearGradient>
<clipPath id="clip0">
<rect width="1226" height="624" fill="white" transform="translate(-235 -106)"/>
</clipPath>
<clipPath id="clip1">
<rect width="795.216" height="696.108" fill="white" transform="translate(-0.483215 -141.705)"/>
</clipPath>
</defs>
</svg>
